# File created by Blade
# Date/Time:  Wed Jan 21 16:20:01 2015
# Frame Rate: 120.000 fps
#------------------------------------------------------
:FULLY-SPECIFIED
:DEGREES
140
root 17.843013 35.701458 -19.084614 -182.654372 0.378219 -175.520356
Spine 2.732711 7.306836 4.367374
Head 28.173160 -6.391572 -0.224259
LeftShoulder -11.692863 -22.046827 -2.720438
LeftArm -22.049807 -5.869636 -57.314331
LeftForeArm -2.308517 -0.000000 1.310616
LeftHand -6.750726 -0.000000 -0.872045
LeftHandThumb1 -26.253704 0.000000 33.147579
RightShoulder -7.735709 -15.003840 11.519285
RightArm 23.556267 -3.892794 58.775050
RightForeArm -25.949368 -0.000000 12.902328
RightHand -4.782730 -0.000000 0.258173
RightHandThumb1 -24.326973 -0.000000 -32.862282
LeftUpLeg -14.217787 -8.810175 3.379799
LeftLeg 30.008250 -0.000000 -0.000000
LeftFoot 6.785764 33.497828 11.102262
LeftToeBase -145.223284 -0.000000 0.000000
RightUpLeg 2.397811 -8.653538 11.165885
RightLeg 2.986005 -0.000000 -0.000000
RightFoot -21.180460 -20.676278 19.767067
RightToeBase 23.127419 -0.000000 -0.000000
141
root 17.888007 35.703496 -19.046066 -182.703155 0.271295 -175.562027
Spine 2.944857 7.573736 4.362056
Head 28.139724 -6.707088 -0.239195
LeftShoulder -11.555623 -22.120386 -2.664391
LeftArm -22.118626 -5.874517 -57.104716
LeftForeArm -2.294823 -0.000000 1.464001
LeftHand -6.715209 -0.000000 -0.730301
LeftHandThumb1 -26.253704 0.000000 33.147579
RightShoulder -7.481967 -14.870927 11.438235
RightArm 24.147058 -4.454117 58.415916
RightForeArm -26.283089 0.000000 13.423375
RightHand -4.549008 0.000000 -0.030926
RightHandThumb1 -24.326973 -0.000000 -32.862282
LeftUpLeg -15.480383 -9.351163 3.360615
LeftLeg 31.995782 -0.000000 -0.000000
LeftFoot 8.494918 33.730116 10.775537
LeftToeBase -146.869534 -0.000000 0.000000
RightUpLeg 2.553134 -8.899377 11.173775
RightLeg 2.652557 -0.000000 -0.000000
RightFoot -20.958746 -20.547293 19.692603
RightToeBase 23.098450 -0.000000 -0.000000
142
root 17.935212 35.702803 -18.992521 -182.676647 0.309381 -175.639045
Spine 3.123005 8.041377 4.292457
Head 28.046409 -7.026509 -0.208118
LeftShoulder -11.384169 -22.207311 -2.581095
LeftArm -22.150461 -5.766215 -56.942415
LeftForeArm -2.441181 -0.000000 1.621860
LeftHand -6.727686 -0.000000 -0.709580
LeftHandThumb1 -26.253704 0.000000 33.147579
RightShoulder -7.231704 -14.755439 11.368910
RightArm 24.748480 -4.964211 58.068695
RightForeArm -26.584759 0.000000 14.060958
RightHand -4.469923 -0.000000 -0.182534
RightHandThumb1 -24.326973 -0.000000 -32.862282
LeftUpLeg -16.872507 -9.654284 3.319162
LeftLeg 34.022562 -0.000000 -0.000000
LeftFoot 10.250052 33.854619 10.396643
LeftToeBase -146.953466 -0.000000 0.000000
RightUpLeg 2.576983 -8.775768 11.196970
RightLeg 2.388338 -0.000000 -0.000000
RightFoot -20.866685 -20.700513 19.609512
RightToeBase 23.384870 -0.000000 -0.000000
143
root 17.985526 35.702695 -18.939023 -182.646274 0.318650 -175.694311
Spine 3.295881 8.488925 4.249258
Head 27.934260 -7.385236 -0.225868
LeftShoulder -11.249814 -22.260441 -2.512361
LeftArm -22.077367 -5.684458 -56.751806
LeftForeArm -2.389226 -0.000000 1.711980
LeftHand -6.715293 0.000000 -0.503221
LeftHandThumb1 -26.253704 0.000000 33.147579
RightShoulder -6.997766 -14.566367 11.312030
RightArm 25.328017 -5.496646 57.711317
RightForeArm -26.885957 -0.000000 14.629404
RightHand -4.246668 -0.000000 -0.468145
RightHandThumb1 -24.326973 -0.000000 -32.862282
LeftUpLeg -18.305174 -9.961751 3.315014
LeftLeg 36.044700 -0.000000 -0.000000
LeftFoot 12.075573 34.132330 10.080942
LeftToeBase -146.162866 -0.000000 0.000000
RightUpLeg 2.570199 -8.993052 11.207635
RightLeg 2.184571 -0.000000 -0.000000
RightFoot -20.667399 -20.470290 19.483096
RightToeBase 23.580579 -0.000000 -0.000000
144
root 18.026966 35.705122 -18.890439 -182.642534 0.293415 -175.748780
Spine 3.491498 8.869651 4.242020
Head 27.835830 -7.727931 -0.260962
LeftShoulder -11.141730 -22.326122 -2.492862
LeftArm -22.018343 -5.592210 -56.534355
LeftForeArm -2.414192 0.000000 1.817624
LeftHand -6.712337 -0.000000 -0.504518
LeftHandThumb1 -26.253704 0.000000 33.147579
RightShoulder -6.672419 -14.407803 11.252007
RightArm 25.855055 -6.012502 57.283318
RightForeArm -27.336407 0.000000 15.258520
RightHand -3.967337 -0.000000 -0.690082
RightHandThumb1 -24.326973 -0.000000 -32.862282
LeftUpLeg -19.738157 -10.289432 3.283005
LeftLeg 38.102273 -0.000000 -0.000000
LeftFoot 13.729465 34.233496 9.794943
LeftToeBase -144.607071 -0.000000 0.000000
RightUpLeg 2.617060 -9.186679 11.189543
RightLeg 1.958685 -0.000000 -0.000000
RightFoot -20.448929 -20.190117 19.437505
RightToeBase 23.673420 -0.000000 -0.000000
145
root 18.060980 35.707325 -18.842105 -182.637444 0.239615 -175.844419
Spine 3.685188 9.212571 4.194186
Head 27.737366 -8.043817 -0.296785
LeftShoulder -11.028564 -22.448635 -2.488976
LeftArm -22.032309 -5.381894 -56.302145
LeftForeArm -2.601006 -0.000000 1.948812
LeftHand -6.682782 -0.000000 -0.458731
LeftHandThumb1 -26.253704 0.000000 33.147579
RightShoulder -6.380441 -14.211407 11.206493
RightArm 26.412981 -6.667234 56.734961
RightForeArm -27.461571 0.000000 15.925164
RightHand -3.782684 -0.000000 -0.896707
RightHandThumb1 -24.326973 -0.000000 -32.862282
LeftUpLeg -21.201300 -10.605681 3.173846
LeftLeg 40.169678 -0.000000 -0.000000
LeftFoot 15.175541 34.086591 9.640593
LeftToeBase -142.754943 -0.000000 0.000000
RightUpLeg 2.696054 -9.203493 11.135624
RightLeg 1.636744 -0.000000 -0.000000
RightFoot -20.280644 -20.186083 19.439582
RightToeBase 23.559590 -0.000000 -0.000000
146
root 18.097461 35.710704 -18.783700 -182.563768 0.344425 -175.964947
Spine 3.821025 9.710185 4.108106
Head 27.664961 -8.367521 -0.317552
LeftShoulder -10.935903 -22.601073 -2.486294
LeftArm -22.026834 -5.184002 -56.015052
LeftForeArm -2.592958 -0.000000 2.046493
LeftHand -6.576067 -0.000000 -0.396330
LeftHandThumb1 -26.253704 0.000000 33.147579
RightShoulder -6.021427 -14.047470 11.171999
RightArm 26.999208 -7.000077 56.306295
RightForeArm -27.813585 -0.000000 16.467799
RightHand -3.362437 0.000000 -0.952231
RightHandThumb1 -24.326973 -0.000000 -32.862282
LeftUpLeg -22.777996 -10.622701 3.015328
LeftLeg 42.279924 -0.000000 -0.000000
LeftFoot 16.227106 33.635473 9.288277
LeftToeBase -142.279911 -0.000000 0.000000
RightUpLeg 2.659890 -9.158770 11.069638
RightLeg 1.415599 -0.000000 -0.000000
RightFoot -20.169915 -20.055415 19.394546
RightToeBase 23.918516 -0.000000 -0.000000
147
root 18.128434 35.716639 -18.734678 -182.551918 0.310697 -176.115678
Spine 3.998218 10.104156 3.991472
Head 27.614570 -8.710106 -0.309643
LeftShoulder -10.795581 -22.695868 -2.526025
LeftArm -21.991442 -5.094385 -55.693975
LeftForeArm -2.595610 -0.000000 2.236131
LeftHand -6.778049 0.000000 -0.316610
LeftHandThumb1 -26.253704 0.000000 33.147579
RightShoulder -5.786000 -13.878818 11.231453
RightArm 27.662509 -7.751570 55.592328
RightForeArm -27.953832 -0.000000 17.142462
RightHand -3.332695 -0.000000 -1.281796
RightHandThumb1 -24.326973 -0.000000 -32.862282
LeftUpLeg -24.317146 -10.668979 2.740981
LeftLeg 44.392785 -0.000000 -0.000000
LeftFoot 16.992598 32.779938 8.769532
LeftToeBase -142.713611 -0.000000 0.000000
RightUpLeg 2.725275 -9.385547 10.932295
RightLeg 1.119118 -0.000000 -0.000000
RightFoot -19.936833 -19.737138 19.317607
RightToeBase 24.217016 -0.000000 -0.000000
148
root 18.155551 35.723769 -18.690241 -182.533030 0.240717 -176.270879
Spine 4.150887 10.458500 3.855115
Head 27.562632 -9.113776 -0.247534
LeftShoulder -10.705854 -22.764633 -2.533785
LeftArm -21.906045 -5.027964 -55.375210
LeftForeArm -2.556564 -0.000000 2.333776
LeftHand -6.658347 -0.000000 -0.210421
LeftHandThumb1 -26.253704 0.000000 33.147579
RightShoulder -5.480428 -13.691167 11.300678
RightArm 28.203495 -8.344941 54.914050
RightForeArm -28.002530 -0.000000 17.852440
RightHand -3.235012 -0.000000 -1.371434
RightHandThumb1 -24.326973 -0.000000 -32.862282
LeftUpLeg -25.875051 -10.695148 2.415814
LeftLeg 46.522913 -0.000000 -0.000000
LeftFoot 17.594775 31.811128 8.455870
LeftToeBase -143.697690 -0.000000 0.000000
RightUpLeg 2.807419 -9.651269 10.783550
RightLeg 0.804658 -0.000000 -0.000000
RightFoot -19.699202 -19.446676 19.240918
RightToeBase 24.268287 -0.000000 -0.000000
149
root 18.180734 35.731983 -18.645157 -182.525698 0.202874 -176.435235
Spine 4.337299 10.847155 3.741430
Head 27.497686 -9.500324 -0.268947
LeftShoulder -10.544078 -22.924364 -2.608657
LeftArm -21.998253 -4.402307 -55.202344
LeftForeArm -3.038813 -0.000000 2.677683
LeftHand -6.827935 -0.000000 -0.087012
LeftHandThumb1 -26.253704 0.000000 33.147579
RightShoulder -5.253922 -13.492194 11.375249
RightArm 28.875400 -9.036652 54.156222
RightForeArm -28.196076 -0.000000 18.457600
RightHand -3.245344 -0.000000 -1.993370
RightHandThumb1 -24.326973 -0.000000 -32.862282
LeftUpLeg -27.439794 -10.612804 2.035280
LeftLeg 48.658329 -0.000000 -0.000000
LeftFoot 17.935415 30.950975 8.020604
LeftToeBase -145.068856 -0.000000 0.000000
RightUpLeg 2.905873 -9.829538 10.621946
RightLeg 0.497684 -0.000000 -0.000000
RightFoot -19.541774 -19.212374 19.196407
RightToeBase 24.561650 -0.000000 -0.000000
150
root 18.205621 35.739703 -18.603481 -182.525888 0.144854 -176.590374
Spine 4.523673 11.210331 3.632891
Head 27.430745 -9.889402 -0.258412
LeftShoulder -10.434468 -23.021677 -2.632902
LeftArm -22.001369 -3.920375 -55.045046
LeftForeArm -3.378095 -0.000000 2.952221
LeftHand -6.800886 -0.000000 0.226878
LeftHandThumb1 -26.253704 0.000000 33.147579
RightShoulder -4.986789 -13.267817 11.449340
RightArm 29.492292 -9.644906 53.439649
RightForeArm -28.171728 -0.000000 19.052868
RightHand -2.985605 -0.000000 -2.240337
RightHandThumb1 -24.326973 -0.000000 -32.862282
LeftUpLeg -29.003403 -10.561584 1.641628
LeftLeg 50.820705 -0.000000 -0.000000
LeftFoot 18.277860 30.043432 7.734107
LeftToeBase -146.170547 -0.000000 0.000000
RightUpLeg 3.015337 -10.003390 10.479312
RightLeg 0.195942 -0.000000 -0.000000
RightFoot -19.405068 -19.007244 19.173212
RightToeBase 24.756044 -0.000000 -0.000000
151
root 18.233289 35.749004 -18.561919 -182.529215 0.127036 -176.738135
Spine 4.711135 11.594564 3.516679
Head 27.379925 -10.256243 -0.213571
LeftShoulder -10.354538 -22.988889 -2.638717
LeftArm -21.821095 -3.946100 -54.733328
LeftForeArm -3.220468 -0.000000 3.081484
LeftHand -6.792421 -0.000000 0.277768
LeftHandThumb1 -26.253704 0.000000 33.147579
RightShoulder -4.719508 -13.119236 11.533415
RightArm 30.172586 -10.183929 52.712600
RightForeArm -28.532681 -0.000000 19.674098
RightHand -2.644458 -0.000000 -2.441650
RightHandThumb1 -24.326973 -0.000000 -32.862282
LeftUpLeg -30.580778 -10.416762 1.229947
LeftLeg 52.961544 -0.000000 -0.000000
LeftFoot 18.641688 29.260143 7.434281
LeftToeBase -147.275223 -0.000000 0.000000
RightUpLeg 3.102797 -10.228087 10.348198
RightLeg -0.063285 -0.000000 0.000000
RightFoot -19.134400 -18.732156 19.090630
RightToeBase 24.546895 -0.000000 -0.000000
152
root 18.249422 35.755510 -18.516589 -182.489099 0.174449 -176.965196
Spine 4.869010 12.065799 3.319730
Head 27.286950 -10.652033 -0.160117
LeftShoulder -10.230288 -23.095864 -2.590777
LeftArm -21.833076 -4.002960 -54.430937
LeftForeArm -2.990615 -0.000000 3.274065
LeftHand -6.809638 0.000000 0.394936
LeftHandThumb1 -26.253704 0.000000 33.147579
RightShoulder -4.461543 -12.901000 11.596049
RightArm 30.822189 -10.732437 52.014035
RightForeArm -28.817765 -0.000000 20.215885
RightHand -2.347642 0.000000 -2.781354
RightHandThumb1 -24.326973 -0.000000 -32.862282
LeftUpLeg -32.183197 -10.284427 0.722057
LeftLeg 55.055327 -0.000000 -0.000000
LeftFoot 18.925136 28.647649 7.246921
LeftToeBase -148.130035 -0.000000 0.000000
RightUpLeg 3.169954 -9.939317 10.180388
RightLeg -0.393882 -0.000000 0.000000
RightFoot -18.915991 -19.040581 18.834950
RightToeBase 24.046635 -0.000000 -0.000000
